<mxfile host="app.diagrams.net" modified="2024-06-17T06:34:21.340Z" agent="Mozilla/5.0 (Windows NT 10.0; Win64; x64) AppleWebKit/537.36 (KHTML, like Gecko) Chrome/125.0.0.0 Safari/537.36" version="24.5.4" etag="3mCyA4S-mXbvyH71r65c" type="github">
  <diagram name="Page-1" id="O3rWBJX8jeO5yJ2RF__d">
    <mxGraphModel>
      <root>
        <mxCell id="0" />
        <mxCell id="1" parent="0" />
      </root>
    </mxGraphModel>
  </diagram>
</mxfile>
